<?xml version="1.0" encoding="utf-8"?>
<svg xmlns="http://www.w3.org/2000/svg" xmlns:xlink="http://www.w3.org/1999/xlink" width="528" height="336" viewBox="0 0 2112 1344">
<defs>
  <clipPath id="clip740">
    <rect x="0" y="0" width="2112" height="1344"/>
  </clipPath>
</defs>
<path clip-path="url(#clip740)" d="M0 1344 L2112 1344 L2112 0 L0 0  Z" fill="#ffffff" fill-rule="evenodd" fill-opacity="1"/>
<defs>
  <clipPath id="clip741">
    <rect x="422" y="0" width="1479" height="1344"/>
  </clipPath>
</defs>
<path clip-path="url(#clip740)" d="M47.2441 1296.76 L2064.76 1296.76 L2064.76 47.2441 L47.2441 47.2441  Z" fill="#ffffff" fill-rule="evenodd" fill-opacity="1"/>
<defs>
  <clipPath id="clip742">
    <rect x="47" y="47" width="2019" height="1251"/>
  </clipPath>
</defs>
<path clip-path="url(#clip742)" d="M104.343 122.613 L104.343 1221.39 L2007.66 1221.39 L104.343 122.613  Z" fill="#808080" fill-rule="evenodd" fill-opacity="0.1"/>
<polyline clip-path="url(#clip742)" style="stroke:#000000; stroke-linecap:round; stroke-linejoin:round; stroke-width:8; stroke-opacity:1; fill:none" points="104.343,122.613 104.343,1221.39 2007.66,1221.39 104.343,122.613 "/>
<path clip-path="url(#clip742)" d="M104.343 122.613 L1126.11 1144.26 L2007.66 1221.39 L104.343 122.613 L104.343 122.613  Z" fill="#808080" fill-rule="evenodd" fill-opacity="0.3"/>
<polyline clip-path="url(#clip742)" style="stroke:#000000; stroke-linecap:round; stroke-linejoin:round; stroke-width:4; stroke-opacity:1; fill:none" points="104.343,122.613 1126.11,1144.26 2007.66,1221.39 104.343,122.613 "/>
<polyline clip-path="url(#clip742)" style="stroke:#ff0000; stroke-linecap:round; stroke-linejoin:round; stroke-width:20; stroke-opacity:1; fill:none" points="1126.11,1144.26 2007.66,1221.39 "/>
<polyline clip-path="url(#clip742)" style="stroke:#808080; stroke-linecap:round; stroke-linejoin:round; stroke-width:4; stroke-opacity:1; fill:none" stroke-dasharray="16, 10" points="1126.11,122.613 1126.11,1144.26 2007.66,1144.26 "/>
<path clip-path="url(#clip740)" d="M1418.75 1186.33 L1450.88 1186.33 L1450.88 1193.21 L1426.25 1193.21 L1426.25 1208.04 Q1428.03 1207.43 1429.81 1207.15 Q1431.59 1206.82 1433.38 1206.82 Q1443.5 1206.82 1449.42 1212.37 Q1455.33 1217.92 1455.33 1227.4 Q1455.33 1237.17 1449.26 1242.59 Q1443.18 1247.98 1432.12 1247.98 Q1428.31 1247.98 1424.34 1247.33 Q1420.41 1246.69 1416.2 1245.39 L1416.2 1237.17 Q1419.85 1239.15 1423.73 1240.12 Q1427.62 1241.1 1431.96 1241.1 Q1438.97 1241.1 1443.06 1237.41 Q1447.15 1233.72 1447.15 1227.4 Q1447.15 1221.08 1443.06 1217.4 Q1438.97 1213.71 1431.96 1213.71 Q1428.68 1213.71 1425.4 1214.44 Q1422.15 1215.17 1418.75 1216.71 L1418.75 1186.33 Z" fill="#000000" fill-rule="nonzero" fill-opacity="1" /><path clip-path="url(#clip740)" d="M1485.67 1192.32 Q1483.65 1188.84 1479.56 1188.84 Q1475.46 1188.84 1473.44 1192.32 Q1471.37 1195.81 1471.37 1202.77 Q1471.37 1209.78 1473.44 1213.27 Q1475.46 1216.75 1479.56 1216.75 Q1483.65 1216.75 1485.67 1213.27 Q1487.74 1209.78 1487.74 1202.77 Q1487.74 1195.81 1485.67 1192.32 M1479.56 1185.23 Q1486.08 1185.23 1489.52 1189.73 Q1492.96 1194.23 1492.96 1202.77 Q1492.96 1211.36 1489.52 1215.86 Q1486.08 1220.35 1479.56 1220.35 Q1472.99 1220.35 1469.55 1215.86 Q1466.11 1211.36 1466.11 1202.77 Q1466.11 1194.23 1469.55 1189.73 Q1472.99 1185.23 1479.56 1185.23 Z" fill="#000000" fill-rule="nonzero" fill-opacity="1" /><path clip-path="url(#clip740)" d="M1785.83 1186.88 Q1791.7 1188.14 1794.98 1192.11 Q1798.3 1196.08 1798.3 1201.91 Q1798.3 1210.86 1792.15 1215.76 Q1785.99 1220.67 1774.65 1220.67 Q1770.84 1220.67 1766.79 1219.9 Q1762.78 1219.17 1758.48 1217.67 L1758.48 1209.77 Q1761.89 1211.75 1765.94 1212.77 Q1769.99 1213.78 1774.4 1213.78 Q1782.1 1213.78 1786.11 1210.74 Q1790.16 1207.7 1790.16 1201.91 Q1790.16 1196.56 1786.39 1193.57 Q1782.67 1190.53 1775.98 1190.53 L1768.94 1190.53 L1768.94 1183.8 L1776.31 1183.8 Q1782.34 1183.8 1785.54 1181.41 Q1788.74 1178.98 1788.74 1174.45 Q1788.74 1169.79 1785.42 1167.32 Q1782.14 1164.8 1775.98 1164.8 Q1772.62 1164.8 1768.77 1165.53 Q1764.92 1166.26 1760.31 1167.8 L1760.31 1160.51 Q1764.97 1159.21 1769.02 1158.57 Q1773.11 1157.92 1776.71 1157.92 Q1786.03 1157.92 1791.46 1162.17 Q1796.89 1166.38 1796.89 1173.59 Q1796.89 1178.62 1794.01 1182.1 Q1791.13 1185.54 1785.83 1186.88 Z" fill="#000000" fill-rule="nonzero" fill-opacity="1" /><path clip-path="url(#clip740)" d="M1831.32 1164.4 Q1825 1164.4 1821.8 1170.64 Q1818.64 1176.84 1818.64 1189.31 Q1818.64 1201.75 1821.8 1207.99 Q1825 1214.18 1831.32 1214.18 Q1837.68 1214.18 1840.84 1207.99 Q1844.04 1201.75 1844.04 1189.31 Q1844.04 1176.84 1840.84 1170.64 Q1837.68 1164.4 1831.32 1164.4 M1831.32 1157.92 Q1841.49 1157.92 1846.83 1165.98 Q1852.22 1174 1852.22 1189.31 Q1852.22 1204.58 1846.83 1212.65 Q1841.49 1220.67 1831.32 1220.67 Q1821.15 1220.67 1815.76 1212.65 Q1810.42 1204.58 1810.42 1189.31 Q1810.42 1174 1815.76 1165.98 Q1821.15 1157.92 1831.32 1157.92 Z" fill="#000000" fill-rule="nonzero" fill-opacity="1" /><path clip-path="url(#clip740)" d="M1880.82 1165.01 Q1878.8 1161.52 1874.7 1161.52 Q1870.61 1161.52 1868.59 1165.01 Q1866.52 1168.49 1866.52 1175.46 Q1866.52 1182.47 1868.59 1185.95 Q1870.61 1189.43 1874.7 1189.43 Q1878.8 1189.43 1880.82 1185.95 Q1882.89 1182.47 1882.89 1175.46 Q1882.89 1168.49 1880.82 1165.01 M1874.7 1157.92 Q1881.23 1157.92 1884.67 1162.41 Q1888.11 1166.91 1888.11 1175.46 Q1888.11 1184.05 1884.67 1188.54 Q1881.23 1193.04 1874.7 1193.04 Q1868.14 1193.04 1864.7 1188.54 Q1861.26 1184.05 1861.26 1175.46 Q1861.26 1166.91 1864.7 1162.41 Q1868.14 1157.92 1874.7 1157.92 Z" fill="#000000" fill-rule="nonzero" fill-opacity="1" /><path clip-path="url(#clip740)" d="M720.027 669.67 L720.027 691.828 L733.152 691.828 Q739.755 691.828 742.915 689.114 Q746.115 686.36 746.115 680.729 Q746.115 675.058 742.915 672.384 Q739.755 669.67 733.152 669.67 L720.027 669.67 M720.027 644.797 L720.027 663.026 L732.14 663.026 Q738.135 663.026 741.052 660.798 Q744.009 658.53 744.009 653.912 Q744.009 649.334 741.052 647.066 Q738.135 644.797 732.14 644.797 L720.027 644.797 M711.845 638.073 L732.747 638.073 Q742.105 638.073 747.168 641.962 Q752.232 645.851 752.232 653.021 Q752.232 658.57 749.64 661.852 Q747.047 665.133 742.024 665.943 Q748.06 667.239 751.381 671.371 Q754.744 675.463 754.744 681.62 Q754.744 689.722 749.234 694.137 Q743.725 698.553 733.557 698.553 L711.845 698.553 L711.845 638.073 Z" fill="#000000" fill-rule="nonzero" fill-opacity="1" /><path clip-path="url(#clip740)" d="M807.243 674.004 L807.243 677.65 L772.973 677.65 Q773.459 685.347 777.591 689.398 Q781.763 693.408 789.176 693.408 Q793.47 693.408 797.481 692.355 Q801.532 691.302 805.501 689.195 L805.501 696.244 Q801.491 697.945 797.278 698.836 Q793.065 699.728 788.731 699.728 Q777.874 699.728 771.514 693.408 Q765.195 687.089 765.195 676.313 Q765.195 665.173 771.19 658.651 Q777.226 652.089 787.434 652.089 Q796.589 652.089 801.896 658.003 Q807.243 663.877 807.243 674.004 M799.79 671.817 Q799.709 665.7 796.346 662.054 Q793.025 658.408 787.515 658.408 Q781.277 658.408 777.51 661.933 Q773.783 665.457 773.216 671.857 L799.79 671.817 Z" fill="#000000" fill-rule="nonzero" fill-opacity="1" /><path clip-path="url(#clip740)" d="M857.191 671.169 L857.191 698.553 L849.737 698.553 L849.737 671.412 Q849.737 664.971 847.226 661.771 Q844.714 658.57 839.691 658.57 Q833.655 658.57 830.171 662.419 Q826.688 666.267 826.688 672.911 L826.688 698.553 L819.194 698.553 L819.194 653.183 L826.688 653.183 L826.688 660.231 Q829.361 656.14 832.967 654.114 Q836.612 652.089 841.352 652.089 Q849.17 652.089 853.181 656.95 Q857.191 661.771 857.191 671.169 Z" fill="#000000" fill-rule="nonzero" fill-opacity="1" /><path clip-path="url(#clip740)" d="M904.708 654.925 L904.708 661.892 Q901.548 660.15 898.348 659.3 Q895.189 658.408 891.948 658.408 Q884.697 658.408 880.686 663.026 Q876.676 667.604 876.676 675.908 Q876.676 684.213 880.686 688.831 Q884.697 693.408 891.948 693.408 Q895.189 693.408 898.348 692.557 Q901.548 691.666 904.708 689.924 L904.708 696.811 Q901.589 698.269 898.227 698.998 Q894.905 699.728 891.138 699.728 Q880.889 699.728 874.853 693.287 Q868.817 686.846 868.817 675.908 Q868.817 664.809 874.893 658.449 Q881.01 652.089 891.624 652.089 Q895.067 652.089 898.348 652.818 Q901.629 653.507 904.708 654.925 Z" fill="#000000" fill-rule="nonzero" fill-opacity="1" /><path clip-path="url(#clip740)" d="M955.385 671.169 L955.385 698.553 L947.931 698.553 L947.931 671.412 Q947.931 664.971 945.42 661.771 Q942.908 658.57 937.885 658.57 Q931.849 658.57 928.365 662.419 Q924.882 666.267 924.882 672.911 L924.882 698.553 L917.387 698.553 L917.387 635.521 L924.882 635.521 L924.882 660.231 Q927.555 656.14 931.161 654.114 Q934.806 652.089 939.546 652.089 Q947.364 652.089 951.375 656.95 Q955.385 661.771 955.385 671.169 Z" fill="#000000" fill-rule="nonzero" fill-opacity="1" /><path clip-path="url(#clip740)" d="M1002.9 654.925 L1002.9 661.892 Q999.742 660.15 996.542 659.3 Q993.382 658.408 990.142 658.408 Q982.891 658.408 978.88 663.026 Q974.87 667.604 974.87 675.908 Q974.87 684.213 978.88 688.831 Q982.891 693.408 990.142 693.408 Q993.382 693.408 996.542 692.557 Q999.742 691.666 1002.9 689.924 L1002.9 696.811 Q999.783 698.269 996.421 698.998 Q993.099 699.728 989.332 699.728 Q979.083 699.728 973.047 693.287 Q967.011 686.846 967.011 675.908 Q967.011 664.809 973.087 658.449 Q979.204 652.089 989.818 652.089 Q993.261 652.089 996.542 652.818 Q999.823 653.507 1002.9 654.925 Z" fill="#000000" fill-rule="nonzero" fill-opacity="1" /><path clip-path="url(#clip740)" d="M1015.1 680.648 L1015.1 653.183 L1022.55 653.183 L1022.55 680.364 Q1022.55 686.805 1025.06 690.046 Q1027.57 693.246 1032.6 693.246 Q1038.63 693.246 1042.11 689.398 Q1045.64 685.549 1045.64 678.906 L1045.64 653.183 L1053.09 653.183 L1053.09 698.553 L1045.64 698.553 L1045.64 691.585 Q1042.92 695.717 1039.32 697.743 Q1035.75 699.728 1031.02 699.728 Q1023.2 699.728 1019.15 694.867 Q1015.1 690.005 1015.1 680.648 M1033.85 652.089 L1033.85 652.089 Z" fill="#000000" fill-rule="nonzero" fill-opacity="1" /><path clip-path="url(#clip740)" d="M1075.82 640.301 L1075.82 653.183 L1091.17 653.183 L1091.17 658.976 L1075.82 658.976 L1075.82 683.605 Q1075.82 689.155 1077.32 690.735 Q1078.86 692.314 1083.52 692.314 L1091.17 692.314 L1091.17 698.553 L1083.52 698.553 Q1074.89 698.553 1071.61 695.353 Q1068.32 692.112 1068.32 683.605 L1068.32 658.976 L1062.86 658.976 L1062.86 653.183 L1068.32 653.183 L1068.32 640.301 L1075.82 640.301 Z" fill="#000000" fill-rule="nonzero" fill-opacity="1" /></svg>
