<?xml version="1.0" encoding="utf-8"?>
<svg xmlns="http://www.w3.org/2000/svg" xmlns:xlink="http://www.w3.org/1999/xlink" width="528" height="336" viewBox="0 0 2112 1344">
<defs>
  <clipPath id="clip850">
    <rect x="0" y="0" width="2112" height="1344"/>
  </clipPath>
</defs>
<path clip-path="url(#clip850)" d="M0 1344 L2112 1344 L2112 0 L0 0  Z" fill="#ffffff" fill-rule="evenodd" fill-opacity="1"/>
<defs>
  <clipPath id="clip851">
    <rect x="422" y="0" width="1479" height="1344"/>
  </clipPath>
</defs>
<path clip-path="url(#clip850)" d="M47.2441 1296.76 L2064.76 1296.76 L2064.76 47.2441 L47.2441 47.2441  Z" fill="#ffffff" fill-rule="evenodd" fill-opacity="1"/>
<defs>
  <clipPath id="clip852">
    <rect x="47" y="47" width="2019" height="1251"/>
  </clipPath>
</defs>
<polyline clip-path="url(#clip852)" style="stroke:#009af9; stroke-linecap:round; stroke-linejoin:round; stroke-width:4; stroke-opacity:1; fill:none" points="580.172,82.6076 581.721,82.6385 583.27,82.7309 584.819,82.885 586.368,83.1007 593.529,84.898 600.69,88.0075 607.851,92.4222 615.012,98.1324 622.173,105.125 629.334,113.385 636.496,122.893 643.657,133.628 652.264,148.122 660.871,164.306 669.478,182.129 678.085,201.534 685.362,219.129 692.639,237.768 699.917,257.41 707.194,278.009 715.099,301.414 723.004,325.828 730.909,351.184 738.814,377.415 753.39,427.828 767.965,480.501 799.218,598.769 835.428,739.338 851.518,801.042 867.607,861.291 881.716,912.39 895.825,961.404 903.516,987.094 911.208,1011.97 918.899,1035.97 926.59,1059.03 934.327,1081.22 942.064,1102.35 949.801,1122.35 957.538,1141.18 966.093,1160.57 974.647,1178.4 983.201,1194.61 991.755,1209.16 999.895,1221.42 1008.03,1232.08 1016.17,1241.13 1024.31,1248.54 1032.77,1254.48 1041.24,1258.6 1049.7,1260.88 1058.16,1261.33 1065.29,1260.28 1072.41,1257.94 1079.54,1254.29 1086.66,1249.36 1095.36,1241.61 1104.05,1231.98 1112.75,1220.5 1121.45,1207.22 1129.42,1193.5 1137.38,1178.34 1145.35,1161.77 1153.32,1143.86 1160.68,1126.15 1168.04,1107.37 1175.39,1087.56 1182.75,1066.77 1190.21,1044.76 1197.66,1021.85 1205.11,998.093 1212.57,973.546 1229.28,915.964 1245.98,855.416 1261.12,798.604 1276.26,740.528 1310.93,605.916 1343.03,484.197 1358.85,426.962 1374.68,372.399 1382.36,347.054 1390.04,322.544 1397.72,298.933 1405.4,276.281 1413.28,254.116 1421.15,233.081 1429.03,213.233 1436.9,194.624 1445.53,175.718 1454.16,158.422 1462.78,142.792 1471.41,128.879 1477.68,119.875 1483.95,111.817 1490.21,104.717 1496.48,98.588 1509.01,89.2831 1521.54,83.9659 1524.11,83.3718 1526.69,82.9473 1529.26,82.6926 1531.83,82.6076 "/>
<polyline clip-path="url(#clip852)" style="stroke:#e26f46; stroke-linecap:round; stroke-linejoin:round; stroke-width:4; stroke-opacity:1; fill:none" points="580.172,82.6076 818.086,82.6076 818.086,1261.39 1293.91,1261.39 1293.91,82.6076 1531.83,82.6076 "/>
<polyline clip-path="url(#clip852)" style="stroke:#3da44d; stroke-linecap:round; stroke-linejoin:round; stroke-width:4; stroke-opacity:1; fill:none" points="104.343,82.6076 107.441,82.623 110.539,82.6693 113.637,82.7463 116.735,82.8542 131.057,83.7528 145.38,85.3076 159.702,87.5149 174.024,90.37 188.347,93.8664 202.669,97.9962 216.991,102.75 231.313,108.118 248.528,115.365 265.742,123.457 282.956,132.369 300.17,142.071 314.725,150.868 329.279,160.188 343.833,170.009 358.388,180.308 374.198,192.011 390.008,204.218 405.818,216.896 421.628,230.011 450.779,255.218 479.93,281.555 542.437,340.688 614.856,410.973 647.035,441.825 679.214,471.949 707.432,497.499 735.65,522.006 751.033,534.851 766.415,547.289 781.798,559.289 797.18,570.82 812.654,581.916 828.129,592.478 843.603,602.479 859.077,611.892 876.185,621.587 893.294,630.502 910.402,638.61 927.511,645.885 943.789,652.011 960.067,657.345 976.346,661.87 992.624,665.574 1009.55,668.542 1026.48,670.601 1043.4,671.745 1060.33,671.97 1074.57,671.446 1088.82,670.272 1103.07,668.449 1117.32,665.983 1134.71,662.107 1152.11,657.292 1169.5,651.554 1186.9,644.912 1202.83,638.052 1218.77,630.471 1234.7,622.19 1250.64,613.232 1265.35,604.377 1280.07,594.987 1294.79,585.083 1309.51,574.688 1324.41,563.685 1339.32,552.229 1354.23,540.35 1369.14,528.077 1402.55,499.286 1435.97,469.012 1466.25,440.606 1496.53,411.568 1565.86,344.262 1630.06,283.402 1661.71,254.785 1693.36,227.504 1708.72,214.831 1724.08,202.576 1739.45,190.77 1754.81,179.444 1770.56,168.362 1786.31,157.845 1802.06,147.92 1817.8,138.616 1835.06,129.163 1852.31,120.515 1869.57,112.7 1886.82,105.743 1899.36,101.241 1911.89,97.2122 1924.42,93.6623 1936.96,90.5978 1962.02,85.9454 1987.09,83.2868 1992.23,82.9897 1997.37,82.7775 2002.51,82.6501 2007.66,82.6076 "/>
</svg>
