<?xml version="1.0" encoding="utf-8"?>
<svg xmlns="http://www.w3.org/2000/svg" xmlns:xlink="http://www.w3.org/1999/xlink" width="528" height="336" viewBox="0 0 2112 1344">
<defs>
  <clipPath id="clip560">
    <rect x="0" y="0" width="2112" height="1344"/>
  </clipPath>
</defs>
<path clip-path="url(#clip560)" d="M0 1344 L2112 1344 L2112 2.13163e-14 L0 2.13163e-14  Z" fill="#ffffff" fill-rule="evenodd" fill-opacity="1"/>
<defs>
  <clipPath id="clip561">
    <rect x="47" y="47" width="2019" height="1251"/>
  </clipPath>
</defs>
<path clip-path="url(#clip560)" d="M47.2441 1296.76 L2064.76 1296.76 L2064.76 47.2441 L47.2441 47.2441  Z" fill="#ffffff" fill-rule="evenodd" fill-opacity="1"/>
<polyline clip-path="url(#clip561)" style="stroke:#009af9; stroke-linecap:round; stroke-linejoin:round; stroke-width:4; stroke-opacity:1; fill:none" points="580.172,82.6076 582.628,82.6851 585.084,82.9176 587.54,83.305 589.996,83.8472 597.189,86.3239 604.382,90.1211 611.575,95.2304 618.767,101.64 625.96,109.336 633.153,118.301 640.346,128.514 647.538,139.952 654.23,151.672 660.923,164.408 667.615,178.135 674.307,192.825 683.277,213.978 692.247,236.736 701.217,261.021 710.187,286.747 725.01,332.177 739.834,380.86 753.619,428.641 767.404,478.436 802.013,609.571 833.057,730.166 850.825,798.41 868.592,864.917 881.873,912.949 895.154,959.128 903.648,987.526 912.141,1014.93 920.635,1041.26 929.128,1066.43 936.88,1088.31 944.632,1109.11 952.384,1128.77 960.136,1147.23 968.958,1166.72 977.781,1184.53 986.604,1200.6 995.427,1214.88 1002.42,1224.9 1009.41,1233.73 1016.41,1241.37 1023.4,1247.79 1032.09,1254.06 1040.78,1258.42 1049.47,1260.84 1058.16,1261.33 1064.81,1260.39 1071.47,1258.32 1078.12,1255.12 1084.78,1250.79 1094.16,1242.79 1103.54,1232.6 1112.92,1220.26 1122.3,1205.81 1129.31,1193.68 1136.33,1180.43 1143.34,1166.09 1150.35,1150.69 1158.32,1131.94 1166.29,1111.91 1174.27,1090.66 1182.24,1068.25 1190.13,1044.98 1198.03,1020.69 1205.93,995.459 1213.82,969.346 1231.2,909.146 1248.57,845.828 1261.84,795.881 1275.11,744.982 1308.6,614.926 1339.58,496.972 1347.57,467.551 1355.56,438.698 1363.54,410.494 1371.53,383.017 1379.62,355.986 1387.72,329.857 1395.82,304.706 1403.91,280.604 1412.37,256.631 1420.82,233.952 1429.27,212.637 1437.73,192.752 1444.38,178.136 1451.04,164.475 1457.7,151.794 1464.36,140.119 1471.94,128.078 1479.53,117.399 1487.11,108.111 1494.69,100.235 1502.27,93.792 1509.86,88.7979 1517.44,85.2651 1525.02,83.2026 1526.72,82.9423 1528.43,82.7564 1530.13,82.6448 1531.83,82.6076 "/>
<polyline clip-path="url(#clip561)" style="stroke:#e26f46; stroke-linecap:round; stroke-linejoin:round; stroke-width:4; stroke-opacity:1; fill:none" points="580.172,82.6076 818.086,82.6076 818.086,1261.39 1293.91,1261.39 1293.91,82.6076 1531.83,82.6076 "/>
<polyline clip-path="url(#clip561)" style="stroke:#3da44d; stroke-linecap:round; stroke-linejoin:round; stroke-width:4; stroke-opacity:1; fill:none" points="104.343,82.6076 109.256,82.6464 114.168,82.7626 119.08,82.9563 123.993,83.2274 138.378,84.4657 152.764,86.3644 167.149,88.919 181.535,92.1239 195.92,95.9718 210.306,100.454 224.691,105.561 239.077,111.28 252.461,117.14 265.845,123.508 279.229,130.371 292.614,137.716 310.553,148.293 328.493,159.672 346.433,171.814 364.373,184.677 394.021,207.392 423.669,231.734 451.238,255.624 478.807,280.522 548.026,346.089 610.115,406.387 645.65,440.509 681.184,473.763 707.747,497.778 734.309,520.868 751.296,535.067 768.282,548.77 785.269,561.933 802.256,574.517 817.76,585.461 833.264,595.861 848.768,605.688 864.272,614.917 881.917,624.662 899.562,633.568 917.208,641.605 934.853,648.745 948.841,653.752 962.829,658.17 976.817,661.989 990.805,665.201 1008.18,668.336 1025.56,670.513 1042.94,671.726 1060.32,671.97 1073.63,671.501 1086.93,670.465 1100.24,668.862 1113.55,666.697 1132.32,662.697 1151.08,657.602 1169.84,651.433 1188.61,644.211 1202.63,638.145 1216.65,631.52 1230.67,624.35 1244.69,616.651 1260.64,607.274 1276.59,597.259 1292.53,586.635 1308.48,575.431 1324.27,563.794 1340.06,551.651 1355.85,539.033 1371.64,525.977 1406.39,495.877 1441.14,464.218 1467.68,439.244 1494.22,413.795 1561.21,348.767 1623.16,289.79 1639.14,275.079 1655.11,260.653 1671.08,246.551 1687.06,232.812 1703.25,219.297 1719.44,206.232 1735.63,193.657 1751.82,181.606 1768.73,169.619 1785.64,158.28 1802.54,147.622 1819.45,137.68 1832.77,130.372 1846.09,123.541 1859.41,117.201 1872.72,111.363 1887.89,105.343 1903.05,100.003 1918.22,95.3591 1933.38,91.4213 1948.55,88.1998 1963.71,85.7028 1978.88,83.9364 1994.04,82.9051 1997.45,82.775 2000.85,82.682 2004.25,82.6262 2007.66,82.6076 "/>
</svg>
