<?xml version="1.0" encoding="utf-8"?>
<svg xmlns="http://www.w3.org/2000/svg" xmlns:xlink="http://www.w3.org/1999/xlink" width="528" height="336" viewBox="0 0 2112 1344">
<defs>
  <clipPath id="clip500">
    <rect x="0" y="0" width="2112" height="1344"/>
  </clipPath>
</defs>
<path clip-path="url(#clip500)" d="M0 1344 L2112 1344 L2112 2.13163e-14 L0 2.13163e-14  Z" fill="#ffffff" fill-rule="evenodd" fill-opacity="1"/>
<defs>
  <clipPath id="clip501">
    <rect x="47" y="47" width="2019" height="1251"/>
  </clipPath>
</defs>
<path clip-path="url(#clip500)" d="M47.2441 1296.76 L2064.76 1296.76 L2064.76 47.2441 L47.2441 47.2441  Z" fill="#ffffff" fill-rule="evenodd" fill-opacity="1"/>
<path clip-path="url(#clip501)" d="M104.343 824.272 L835.251 824.272 L104.343 458.819 L104.343 824.272 L104.343 824.272  Z" fill="#808080" fill-rule="evenodd" fill-opacity="0.05"/>
<polyline clip-path="url(#clip501)" style="stroke:#000000; stroke-linecap:round; stroke-linejoin:round; stroke-width:4; stroke-opacity:1; fill:none" points="104.343,824.272 835.251,824.272 104.343,458.819 104.343,824.272 "/>
<path clip-path="url(#clip501)" d="M1033.11 824.272 L1520.38 824.272 L1520.38 885.181 L2007.66 885.181 L1520.38 732.909 L1764.02 641.546 L1033.11 458.819 L1033.11 824.272 L1033.11 824.272  Z" fill="#808080" fill-rule="evenodd" fill-opacity="0.05"/>
<polyline clip-path="url(#clip501)" style="stroke:#000000; stroke-linecap:round; stroke-linejoin:round; stroke-width:4; stroke-opacity:1; fill:none" points="1033.11,824.272 1520.38,824.272 1520.38,885.181 2007.66,885.181 1520.38,732.909 1764.02,641.546 1033.11,458.819 1033.11,824.272 "/>
<path clip-path="url(#clip501)" d="M1520.38 824.272 L1520.38 732.909 L1520.38 824.272  Z" fill="#3da44d" fill-rule="evenodd" fill-opacity="1"/>
<polyline clip-path="url(#clip501)" style="stroke:#000000; stroke-linecap:round; stroke-linejoin:round; stroke-width:4; stroke-opacity:1; fill:none" points="1520.38,824.272 1520.38,732.909 1520.38,824.272 "/>
<path clip-path="url(#clip501)" d="M1764.02 641.546 L1764.02 801.432 L1764.02 641.546  Z" fill="#c271d2" fill-rule="evenodd" fill-opacity="1"/>
<polyline clip-path="url(#clip501)" style="stroke:#000000; stroke-linecap:round; stroke-linejoin:round; stroke-width:4; stroke-opacity:1; fill:none" points="1764.02,641.546 1764.02,801.432 1764.02,641.546 "/>
</svg>
