<?xml version="1.0" encoding="utf-8"?>
<svg xmlns="http://www.w3.org/2000/svg" xmlns:xlink="http://www.w3.org/1999/xlink" width="528" height="336" viewBox="0 0 2112 1344">
<defs>
  <clipPath id="clip810">
    <rect x="0" y="0" width="2112" height="1344"/>
  </clipPath>
</defs>
<path clip-path="url(#clip810)" d="M0 1344 L2112 1344 L2112 0 L0 0  Z" fill="#ffffff" fill-rule="evenodd" fill-opacity="1"/>
<defs>
  <clipPath id="clip811">
    <rect x="422" y="0" width="1479" height="1344"/>
  </clipPath>
</defs>
<path clip-path="url(#clip810)" d="M153.718 1234.58 L2064.76 1234.58 L2064.76 47.2441 L153.718 47.2441  Z" fill="#ffffff" fill-rule="evenodd" fill-opacity="1"/>
<defs>
  <clipPath id="clip812">
    <rect x="153" y="47" width="1912" height="1188"/>
  </clipPath>
</defs>
<polyline clip-path="url(#clip812)" style="stroke:#000000; stroke-linecap:round; stroke-linejoin:round; stroke-width:2; stroke-opacity:0.1; fill:none" points="462.531,1234.58 462.531,47.2441 "/>
<polyline clip-path="url(#clip812)" style="stroke:#000000; stroke-linecap:round; stroke-linejoin:round; stroke-width:2; stroke-opacity:0.1; fill:none" points="785.884,1234.58 785.884,47.2441 "/>
<polyline clip-path="url(#clip812)" style="stroke:#000000; stroke-linecap:round; stroke-linejoin:round; stroke-width:2; stroke-opacity:0.1; fill:none" points="1109.24,1234.58 1109.24,47.2441 "/>
<polyline clip-path="url(#clip812)" style="stroke:#000000; stroke-linecap:round; stroke-linejoin:round; stroke-width:2; stroke-opacity:0.1; fill:none" points="1432.59,1234.58 1432.59,47.2441 "/>
<polyline clip-path="url(#clip812)" style="stroke:#000000; stroke-linecap:round; stroke-linejoin:round; stroke-width:2; stroke-opacity:0.1; fill:none" points="1755.94,1234.58 1755.94,47.2441 "/>
<polyline clip-path="url(#clip810)" style="stroke:#000000; stroke-linecap:round; stroke-linejoin:round; stroke-width:4; stroke-opacity:1; fill:none" points="153.718,1234.58 2064.76,1234.58 "/>
<polyline clip-path="url(#clip810)" style="stroke:#000000; stroke-linecap:round; stroke-linejoin:round; stroke-width:4; stroke-opacity:1; fill:none" points="462.531,1234.58 462.531,1215.68 "/>
<polyline clip-path="url(#clip810)" style="stroke:#000000; stroke-linecap:round; stroke-linejoin:round; stroke-width:4; stroke-opacity:1; fill:none" points="785.884,1234.58 785.884,1215.68 "/>
<polyline clip-path="url(#clip810)" style="stroke:#000000; stroke-linecap:round; stroke-linejoin:round; stroke-width:4; stroke-opacity:1; fill:none" points="1109.24,1234.58 1109.24,1215.68 "/>
<polyline clip-path="url(#clip810)" style="stroke:#000000; stroke-linecap:round; stroke-linejoin:round; stroke-width:4; stroke-opacity:1; fill:none" points="1432.59,1234.58 1432.59,1215.68 "/>
<polyline clip-path="url(#clip810)" style="stroke:#000000; stroke-linecap:round; stroke-linejoin:round; stroke-width:4; stroke-opacity:1; fill:none" points="1755.94,1234.58 1755.94,1215.68 "/>
<path clip-path="url(#clip810)" d="M424.835 1263.19 Q421.224 1263.19 419.395 1266.76 Q417.59 1270.3 417.59 1277.43 Q417.59 1284.54 419.395 1288.1 Q421.224 1291.64 424.835 1291.64 Q428.469 1291.64 430.275 1288.1 Q432.103 1284.54 432.103 1277.43 Q432.103 1270.3 430.275 1266.76 Q428.469 1263.19 424.835 1263.19 M424.835 1259.49 Q430.645 1259.49 433.701 1264.1 Q436.779 1268.68 436.779 1277.43 Q436.779 1286.16 433.701 1290.76 Q430.645 1295.35 424.835 1295.35 Q419.025 1295.35 415.946 1290.76 Q412.89 1286.16 412.89 1277.43 Q412.89 1268.68 415.946 1264.1 Q419.025 1259.49 424.835 1259.49 Z" fill="#000000" fill-rule="nonzero" fill-opacity="1" /><path clip-path="url(#clip810)" d="M444.997 1288.8 L449.881 1288.8 L449.881 1294.67 L444.997 1294.67 L444.997 1288.8 Z" fill="#000000" fill-rule="nonzero" fill-opacity="1" /><path clip-path="url(#clip810)" d="M470.066 1263.19 Q466.455 1263.19 464.626 1266.76 Q462.821 1270.3 462.821 1277.43 Q462.821 1284.54 464.626 1288.1 Q466.455 1291.64 470.066 1291.64 Q473.7 1291.64 475.506 1288.1 Q477.335 1284.54 477.335 1277.43 Q477.335 1270.3 475.506 1266.76 Q473.7 1263.19 470.066 1263.19 M470.066 1259.49 Q475.876 1259.49 478.932 1264.1 Q482.01 1268.68 482.01 1277.43 Q482.01 1286.16 478.932 1290.76 Q475.876 1295.35 470.066 1295.35 Q464.256 1295.35 461.177 1290.76 Q458.122 1286.16 458.122 1277.43 Q458.122 1268.68 461.177 1264.1 Q464.256 1259.49 470.066 1259.49 Z" fill="#000000" fill-rule="nonzero" fill-opacity="1" /><path clip-path="url(#clip810)" d="M500.228 1263.19 Q496.617 1263.19 494.788 1266.76 Q492.983 1270.3 492.983 1277.43 Q492.983 1284.54 494.788 1288.1 Q496.617 1291.64 500.228 1291.64 Q503.862 1291.64 505.668 1288.1 Q507.496 1284.54 507.496 1277.43 Q507.496 1270.3 505.668 1266.76 Q503.862 1263.19 500.228 1263.19 M500.228 1259.49 Q506.038 1259.49 509.094 1264.1 Q512.172 1268.68 512.172 1277.43 Q512.172 1286.16 509.094 1290.76 Q506.038 1295.35 500.228 1295.35 Q494.418 1295.35 491.339 1290.76 Q488.284 1286.16 488.284 1277.43 Q488.284 1268.68 491.339 1264.1 Q494.418 1259.49 500.228 1259.49 Z" fill="#000000" fill-rule="nonzero" fill-opacity="1" /><path clip-path="url(#clip810)" d="M748.685 1263.19 Q745.074 1263.19 743.246 1266.76 Q741.44 1270.3 741.44 1277.43 Q741.44 1284.54 743.246 1288.1 Q745.074 1291.64 748.685 1291.64 Q752.32 1291.64 754.125 1288.1 Q755.954 1284.54 755.954 1277.43 Q755.954 1270.3 754.125 1266.76 Q752.32 1263.19 748.685 1263.19 M748.685 1259.49 Q754.496 1259.49 757.551 1264.1 Q760.63 1268.68 760.63 1277.43 Q760.63 1286.16 757.551 1290.76 Q754.496 1295.35 748.685 1295.35 Q742.875 1295.35 739.797 1290.76 Q736.741 1286.16 736.741 1277.43 Q736.741 1268.68 739.797 1264.1 Q742.875 1259.49 748.685 1259.49 Z" fill="#000000" fill-rule="nonzero" fill-opacity="1" /><path clip-path="url(#clip810)" d="M768.847 1288.8 L773.732 1288.8 L773.732 1294.67 L768.847 1294.67 L768.847 1288.8 Z" fill="#000000" fill-rule="nonzero" fill-opacity="1" /><path clip-path="url(#clip810)" d="M787.944 1290.74 L804.264 1290.74 L804.264 1294.67 L782.319 1294.67 L782.319 1290.74 Q784.981 1287.99 789.565 1283.36 Q794.171 1278.7 795.352 1277.36 Q797.597 1274.84 798.477 1273.1 Q799.38 1271.34 799.38 1269.65 Q799.38 1266.9 797.435 1265.16 Q795.514 1263.42 792.412 1263.42 Q790.213 1263.42 787.759 1264.19 Q785.329 1264.95 782.551 1266.5 L782.551 1261.78 Q785.375 1260.65 787.829 1260.07 Q790.282 1259.49 792.319 1259.49 Q797.69 1259.49 800.884 1262.17 Q804.079 1264.86 804.079 1269.35 Q804.079 1271.48 803.268 1273.4 Q802.481 1275.3 800.375 1277.89 Q799.796 1278.56 796.694 1281.78 Q793.593 1284.98 787.944 1290.74 Z" fill="#000000" fill-rule="nonzero" fill-opacity="1" /><path clip-path="url(#clip810)" d="M814.125 1260.11 L832.481 1260.11 L832.481 1264.05 L818.407 1264.05 L818.407 1272.52 Q819.426 1272.17 820.444 1272.01 Q821.463 1271.83 822.481 1271.83 Q828.268 1271.83 831.648 1275 Q835.027 1278.17 835.027 1283.59 Q835.027 1289.17 831.555 1292.27 Q828.083 1295.35 821.764 1295.35 Q819.588 1295.35 817.319 1294.98 Q815.074 1294.61 812.667 1293.86 L812.667 1289.17 Q814.75 1290.3 816.972 1290.86 Q819.194 1291.41 821.671 1291.41 Q825.676 1291.41 828.014 1289.3 Q830.352 1287.2 830.352 1283.59 Q830.352 1279.98 828.014 1277.87 Q825.676 1275.76 821.671 1275.76 Q819.796 1275.76 817.921 1276.18 Q816.069 1276.6 814.125 1277.48 L814.125 1260.11 Z" fill="#000000" fill-rule="nonzero" fill-opacity="1" /><path clip-path="url(#clip810)" d="M1071.54 1263.19 Q1067.93 1263.19 1066.1 1266.76 Q1064.3 1270.3 1064.3 1277.43 Q1064.3 1284.54 1066.1 1288.1 Q1067.93 1291.64 1071.54 1291.64 Q1075.17 1291.64 1076.98 1288.1 Q1078.81 1284.54 1078.81 1277.43 Q1078.81 1270.3 1076.98 1266.76 Q1075.17 1263.19 1071.54 1263.19 M1071.54 1259.49 Q1077.35 1259.49 1080.41 1264.1 Q1083.48 1268.68 1083.48 1277.43 Q1083.48 1286.16 1080.41 1290.76 Q1077.35 1295.35 1071.54 1295.35 Q1065.73 1295.35 1062.65 1290.76 Q1059.6 1286.16 1059.6 1277.43 Q1059.6 1268.68 1062.65 1264.1 Q1065.73 1259.49 1071.54 1259.49 Z" fill="#000000" fill-rule="nonzero" fill-opacity="1" /><path clip-path="url(#clip810)" d="M1091.7 1288.8 L1096.59 1288.8 L1096.59 1294.67 L1091.7 1294.67 L1091.7 1288.8 Z" fill="#000000" fill-rule="nonzero" fill-opacity="1" /><path clip-path="url(#clip810)" d="M1106.82 1260.11 L1125.17 1260.11 L1125.17 1264.05 L1111.1 1264.05 L1111.1 1272.52 Q1112.12 1272.17 1113.14 1272.01 Q1114.16 1271.83 1115.17 1271.83 Q1120.96 1271.83 1124.34 1275 Q1127.72 1278.17 1127.72 1283.59 Q1127.72 1289.17 1124.25 1292.27 Q1120.78 1295.35 1114.46 1295.35 Q1112.28 1295.35 1110.01 1294.98 Q1107.77 1294.61 1105.36 1293.86 L1105.36 1289.17 Q1107.44 1290.3 1109.67 1290.86 Q1111.89 1291.41 1114.36 1291.41 Q1118.37 1291.41 1120.71 1289.3 Q1123.04 1287.2 1123.04 1283.59 Q1123.04 1279.98 1120.71 1277.87 Q1118.37 1275.76 1114.36 1275.76 Q1112.49 1275.76 1110.61 1276.18 Q1108.76 1276.6 1106.82 1277.48 L1106.82 1260.11 Z" fill="#000000" fill-rule="nonzero" fill-opacity="1" /><path clip-path="url(#clip810)" d="M1146.93 1263.19 Q1143.32 1263.19 1141.49 1266.76 Q1139.69 1270.3 1139.69 1277.43 Q1139.69 1284.54 1141.49 1288.1 Q1143.32 1291.64 1146.93 1291.64 Q1150.57 1291.64 1152.37 1288.1 Q1154.2 1284.54 1154.2 1277.43 Q1154.2 1270.3 1152.37 1266.76 Q1150.57 1263.19 1146.93 1263.19 M1146.93 1259.49 Q1152.74 1259.49 1155.8 1264.1 Q1158.88 1268.68 1158.88 1277.43 Q1158.88 1286.16 1155.8 1290.76 Q1152.74 1295.35 1146.93 1295.35 Q1141.12 1295.35 1138.04 1290.76 Q1134.99 1286.16 1134.99 1277.43 Q1134.99 1268.68 1138.04 1264.1 Q1141.12 1259.49 1146.93 1259.49 Z" fill="#000000" fill-rule="nonzero" fill-opacity="1" /><path clip-path="url(#clip810)" d="M1395.39 1263.19 Q1391.78 1263.19 1389.95 1266.76 Q1388.15 1270.3 1388.15 1277.43 Q1388.15 1284.54 1389.95 1288.1 Q1391.78 1291.64 1395.39 1291.64 Q1399.03 1291.64 1400.83 1288.1 Q1402.66 1284.54 1402.66 1277.43 Q1402.66 1270.3 1400.83 1266.76 Q1399.03 1263.19 1395.39 1263.19 M1395.39 1259.49 Q1401.2 1259.49 1404.26 1264.1 Q1407.34 1268.68 1407.34 1277.43 Q1407.34 1286.16 1404.26 1290.76 Q1401.2 1295.35 1395.39 1295.35 Q1389.58 1295.35 1386.5 1290.76 Q1383.45 1286.16 1383.45 1277.43 Q1383.45 1268.68 1386.5 1264.1 Q1389.58 1259.49 1395.39 1259.49 Z" fill="#000000" fill-rule="nonzero" fill-opacity="1" /><path clip-path="url(#clip810)" d="M1415.55 1288.8 L1420.44 1288.8 L1420.44 1294.67 L1415.55 1294.67 L1415.55 1288.8 Z" fill="#000000" fill-rule="nonzero" fill-opacity="1" /><path clip-path="url(#clip810)" d="M1429.44 1260.11 L1451.66 1260.11 L1451.66 1262.11 L1439.12 1294.67 L1434.23 1294.67 L1446.04 1264.05 L1429.44 1264.05 L1429.44 1260.11 Z" fill="#000000" fill-rule="nonzero" fill-opacity="1" /><path clip-path="url(#clip810)" d="M1460.83 1260.11 L1479.19 1260.11 L1479.19 1264.05 L1465.11 1264.05 L1465.11 1272.52 Q1466.13 1272.17 1467.15 1272.01 Q1468.17 1271.83 1469.19 1271.83 Q1474.97 1271.83 1478.35 1275 Q1481.73 1278.17 1481.73 1283.59 Q1481.73 1289.17 1478.26 1292.27 Q1474.79 1295.35 1468.47 1295.35 Q1466.29 1295.35 1464.02 1294.98 Q1461.78 1294.61 1459.37 1293.86 L1459.37 1289.17 Q1461.46 1290.3 1463.68 1290.86 Q1465.9 1291.41 1468.38 1291.41 Q1472.38 1291.41 1474.72 1289.3 Q1477.06 1287.2 1477.06 1283.59 Q1477.06 1279.98 1474.72 1277.87 Q1472.38 1275.76 1468.38 1275.76 Q1466.5 1275.76 1464.63 1276.18 Q1462.77 1276.6 1460.83 1277.48 L1460.83 1260.11 Z" fill="#000000" fill-rule="nonzero" fill-opacity="1" /><path clip-path="url(#clip810)" d="M1708.01 1290.74 L1715.65 1290.74 L1715.65 1264.37 L1707.34 1266.04 L1707.34 1261.78 L1715.61 1260.11 L1720.28 1260.11 L1720.28 1290.74 L1727.92 1290.74 L1727.92 1294.67 L1708.01 1294.67 L1708.01 1290.74 Z" fill="#000000" fill-rule="nonzero" fill-opacity="1" /><path clip-path="url(#clip810)" d="M1737.37 1288.8 L1742.25 1288.8 L1742.25 1294.67 L1737.37 1294.67 L1737.37 1288.8 Z" fill="#000000" fill-rule="nonzero" fill-opacity="1" /><path clip-path="url(#clip810)" d="M1762.44 1263.19 Q1758.82 1263.19 1757 1266.76 Q1755.19 1270.3 1755.19 1277.43 Q1755.19 1284.54 1757 1288.1 Q1758.82 1291.64 1762.44 1291.64 Q1766.07 1291.64 1767.88 1288.1 Q1769.7 1284.54 1769.7 1277.43 Q1769.7 1270.3 1767.88 1266.76 Q1766.07 1263.19 1762.44 1263.19 M1762.44 1259.49 Q1768.25 1259.49 1771.3 1264.1 Q1774.38 1268.68 1774.38 1277.43 Q1774.38 1286.16 1771.3 1290.76 Q1768.25 1295.35 1762.44 1295.35 Q1756.63 1295.35 1753.55 1290.76 Q1750.49 1286.16 1750.49 1277.43 Q1750.49 1268.68 1753.55 1264.1 Q1756.63 1259.49 1762.44 1259.49 Z" fill="#000000" fill-rule="nonzero" fill-opacity="1" /><path clip-path="url(#clip810)" d="M1792.6 1263.19 Q1788.99 1263.19 1787.16 1266.76 Q1785.35 1270.3 1785.35 1277.43 Q1785.35 1284.54 1787.16 1288.1 Q1788.99 1291.64 1792.6 1291.64 Q1796.23 1291.64 1798.04 1288.1 Q1799.87 1284.54 1799.87 1277.43 Q1799.87 1270.3 1798.04 1266.76 Q1796.23 1263.19 1792.6 1263.19 M1792.6 1259.49 Q1798.41 1259.49 1801.46 1264.1 Q1804.54 1268.68 1804.54 1277.43 Q1804.54 1286.16 1801.46 1290.76 Q1798.41 1295.35 1792.6 1295.35 Q1786.79 1295.35 1783.71 1290.76 Q1780.65 1286.16 1780.65 1277.43 Q1780.65 1268.68 1783.71 1264.1 Q1786.79 1259.49 1792.6 1259.49 Z" fill="#000000" fill-rule="nonzero" fill-opacity="1" /><polyline clip-path="url(#clip812)" style="stroke:#000000; stroke-linecap:round; stroke-linejoin:round; stroke-width:2; stroke-opacity:0.1; fill:none" points="153.718,1200.97 2064.76,1200.97 "/>
<polyline clip-path="url(#clip812)" style="stroke:#000000; stroke-linecap:round; stroke-linejoin:round; stroke-width:2; stroke-opacity:0.1; fill:none" points="153.718,942.293 2064.76,942.293 "/>
<polyline clip-path="url(#clip812)" style="stroke:#000000; stroke-linecap:round; stroke-linejoin:round; stroke-width:2; stroke-opacity:0.1; fill:none" points="153.718,683.61 2064.76,683.61 "/>
<polyline clip-path="url(#clip812)" style="stroke:#000000; stroke-linecap:round; stroke-linejoin:round; stroke-width:2; stroke-opacity:0.1; fill:none" points="153.718,424.928 2064.76,424.928 "/>
<polyline clip-path="url(#clip812)" style="stroke:#000000; stroke-linecap:round; stroke-linejoin:round; stroke-width:2; stroke-opacity:0.1; fill:none" points="153.718,166.246 2064.76,166.246 "/>
<polyline clip-path="url(#clip810)" style="stroke:#000000; stroke-linecap:round; stroke-linejoin:round; stroke-width:4; stroke-opacity:1; fill:none" points="153.718,1234.58 153.718,47.2441 "/>
<polyline clip-path="url(#clip810)" style="stroke:#000000; stroke-linecap:round; stroke-linejoin:round; stroke-width:4; stroke-opacity:1; fill:none" points="153.718,1200.97 172.616,1200.97 "/>
<polyline clip-path="url(#clip810)" style="stroke:#000000; stroke-linecap:round; stroke-linejoin:round; stroke-width:4; stroke-opacity:1; fill:none" points="153.718,942.293 172.616,942.293 "/>
<polyline clip-path="url(#clip810)" style="stroke:#000000; stroke-linecap:round; stroke-linejoin:round; stroke-width:4; stroke-opacity:1; fill:none" points="153.718,683.61 172.616,683.61 "/>
<polyline clip-path="url(#clip810)" style="stroke:#000000; stroke-linecap:round; stroke-linejoin:round; stroke-width:4; stroke-opacity:1; fill:none" points="153.718,424.928 172.616,424.928 "/>
<polyline clip-path="url(#clip810)" style="stroke:#000000; stroke-linecap:round; stroke-linejoin:round; stroke-width:4; stroke-opacity:1; fill:none" points="153.718,166.246 172.616,166.246 "/>
<path clip-path="url(#clip810)" d="M64.8626 1186.77 Q61.2515 1186.77 59.4228 1190.34 Q57.6173 1193.88 57.6173 1201.01 Q57.6173 1208.12 59.4228 1211.68 Q61.2515 1215.22 64.8626 1215.22 Q68.4969 1215.22 70.3024 1211.68 Q72.1311 1208.12 72.1311 1201.01 Q72.1311 1193.88 70.3024 1190.34 Q68.4969 1186.77 64.8626 1186.77 M64.8626 1183.07 Q70.6728 1183.07 73.7283 1187.68 Q76.807 1192.26 76.807 1201.01 Q76.807 1209.74 73.7283 1214.34 Q70.6728 1218.93 64.8626 1218.93 Q59.0525 1218.93 55.9738 1214.34 Q52.9182 1209.74 52.9182 1201.01 Q52.9182 1192.26 55.9738 1187.68 Q59.0525 1183.07 64.8626 1183.07 Z" fill="#000000" fill-rule="nonzero" fill-opacity="1" /><path clip-path="url(#clip810)" d="M85.0245 1212.38 L89.9088 1212.38 L89.9088 1218.25 L85.0245 1218.25 L85.0245 1212.38 Z" fill="#000000" fill-rule="nonzero" fill-opacity="1" /><path clip-path="url(#clip810)" d="M110.094 1186.77 Q106.483 1186.77 104.654 1190.34 Q102.849 1193.88 102.849 1201.01 Q102.849 1208.12 104.654 1211.68 Q106.483 1215.22 110.094 1215.22 Q113.728 1215.22 115.534 1211.68 Q117.362 1208.12 117.362 1201.01 Q117.362 1193.88 115.534 1190.34 Q113.728 1186.77 110.094 1186.77 M110.094 1183.07 Q115.904 1183.07 118.96 1187.68 Q122.038 1192.26 122.038 1201.01 Q122.038 1209.74 118.96 1214.34 Q115.904 1218.93 110.094 1218.93 Q104.284 1218.93 101.205 1214.34 Q98.1495 1209.74 98.1495 1201.01 Q98.1495 1192.26 101.205 1187.68 Q104.284 1183.07 110.094 1183.07 Z" fill="#000000" fill-rule="nonzero" fill-opacity="1" /><path clip-path="url(#clip810)" d="M66.4598 928.091 Q62.8487 928.091 61.02 931.656 Q59.2145 935.198 59.2145 942.327 Q59.2145 949.434 61.02 952.999 Q62.8487 956.54 66.4598 956.54 Q70.0941 956.54 71.8996 952.999 Q73.7283 949.434 73.7283 942.327 Q73.7283 935.198 71.8996 931.656 Q70.0941 928.091 66.4598 928.091 M66.4598 924.388 Q72.27 924.388 75.3255 928.994 Q78.4042 933.577 78.4042 942.327 Q78.4042 951.054 75.3255 955.661 Q72.27 960.244 66.4598 960.244 Q60.6497 960.244 57.571 955.661 Q54.5154 951.054 54.5154 942.327 Q54.5154 933.577 57.571 928.994 Q60.6497 924.388 66.4598 924.388 Z" fill="#000000" fill-rule="nonzero" fill-opacity="1" /><path clip-path="url(#clip810)" d="M86.6218 953.693 L91.506 953.693 L91.506 959.573 L86.6218 959.573 L86.6218 953.693 Z" fill="#000000" fill-rule="nonzero" fill-opacity="1" /><path clip-path="url(#clip810)" d="M105.719 955.638 L122.038 955.638 L122.038 959.573 L100.094 959.573 L100.094 955.638 Q102.756 952.883 107.339 948.253 Q111.946 943.601 113.126 942.258 Q115.372 939.735 116.251 937.999 Q117.154 936.239 117.154 934.55 Q117.154 931.795 115.21 930.059 Q113.288 928.323 110.186 928.323 Q107.987 928.323 105.534 929.087 Q103.103 929.851 100.325 931.402 L100.325 926.679 Q103.149 925.545 105.603 924.966 Q108.057 924.388 110.094 924.388 Q115.464 924.388 118.659 927.073 Q121.853 929.758 121.853 934.249 Q121.853 936.378 121.043 938.3 Q120.256 940.198 118.149 942.79 Q117.571 943.462 114.469 946.679 Q111.367 949.874 105.719 955.638 Z" fill="#000000" fill-rule="nonzero" fill-opacity="1" /><path clip-path="url(#clip810)" d="M64.3765 669.409 Q60.7654 669.409 58.9367 672.974 Q57.1312 676.516 57.1312 683.645 Q57.1312 690.752 58.9367 694.316 Q60.7654 697.858 64.3765 697.858 Q68.0107 697.858 69.8163 694.316 Q71.645 690.752 71.645 683.645 Q71.645 676.516 69.8163 672.974 Q68.0107 669.409 64.3765 669.409 M64.3765 665.705 Q70.1867 665.705 73.2422 670.312 Q76.3209 674.895 76.3209 683.645 Q76.3209 692.372 73.2422 696.978 Q70.1867 701.562 64.3765 701.562 Q58.5664 701.562 55.4877 696.978 Q52.4321 692.372 52.4321 683.645 Q52.4321 674.895 55.4877 670.312 Q58.5664 665.705 64.3765 665.705 Z" fill="#000000" fill-rule="nonzero" fill-opacity="1" /><path clip-path="url(#clip810)" d="M84.5384 695.011 L89.4227 695.011 L89.4227 700.89 L84.5384 700.89 L84.5384 695.011 Z" fill="#000000" fill-rule="nonzero" fill-opacity="1" /><path clip-path="url(#clip810)" d="M112.455 670.404 L100.649 688.853 L112.455 688.853 L112.455 670.404 M111.228 666.33 L117.108 666.33 L117.108 688.853 L122.038 688.853 L122.038 692.742 L117.108 692.742 L117.108 700.89 L112.455 700.89 L112.455 692.742 L96.8532 692.742 L96.8532 688.228 L111.228 666.33 Z" fill="#000000" fill-rule="nonzero" fill-opacity="1" /><path clip-path="url(#clip810)" d="M64.7006 410.727 Q61.0895 410.727 59.2608 414.292 Q57.4552 417.833 57.4552 424.963 Q57.4552 432.069 59.2608 435.634 Q61.0895 439.176 64.7006 439.176 Q68.3348 439.176 70.1404 435.634 Q71.9691 432.069 71.9691 424.963 Q71.9691 417.833 70.1404 414.292 Q68.3348 410.727 64.7006 410.727 M64.7006 407.023 Q70.5107 407.023 73.5663 411.63 Q76.645 416.213 76.645 424.963 Q76.645 433.69 73.5663 438.296 Q70.5107 442.879 64.7006 442.879 Q58.8904 442.879 55.8117 438.296 Q52.7562 433.69 52.7562 424.963 Q52.7562 416.213 55.8117 411.63 Q58.8904 407.023 64.7006 407.023 Z" fill="#000000" fill-rule="nonzero" fill-opacity="1" /><path clip-path="url(#clip810)" d="M84.8625 436.329 L89.7467 436.329 L89.7467 442.208 L84.8625 442.208 L84.8625 436.329 Z" fill="#000000" fill-rule="nonzero" fill-opacity="1" /><path clip-path="url(#clip810)" d="M110.511 423.065 Q107.362 423.065 105.511 425.218 Q103.682 427.37 103.682 431.12 Q103.682 434.847 105.511 437.023 Q107.362 439.176 110.511 439.176 Q113.659 439.176 115.487 437.023 Q117.339 434.847 117.339 431.12 Q117.339 427.37 115.487 425.218 Q113.659 423.065 110.511 423.065 M119.793 408.412 L119.793 412.671 Q118.034 411.838 116.228 411.398 Q114.446 410.958 112.686 410.958 Q108.057 410.958 105.603 414.083 Q103.173 417.208 102.825 423.528 Q104.191 421.514 106.251 420.449 Q108.311 419.361 110.788 419.361 Q115.997 419.361 119.006 422.532 Q122.038 425.68 122.038 431.12 Q122.038 436.444 118.89 439.662 Q115.742 442.879 110.511 442.879 Q104.515 442.879 101.344 438.296 Q98.1726 433.69 98.1726 424.963 Q98.1726 416.768 102.061 411.907 Q105.95 407.023 112.501 407.023 Q114.26 407.023 116.043 407.37 Q117.848 407.718 119.793 408.412 Z" fill="#000000" fill-rule="nonzero" fill-opacity="1" /><path clip-path="url(#clip810)" d="M64.9552 152.045 Q61.3441 152.045 59.5154 155.609 Q57.7099 159.151 57.7099 166.281 Q57.7099 173.387 59.5154 176.952 Q61.3441 180.494 64.9552 180.494 Q68.5894 180.494 70.395 176.952 Q72.2237 173.387 72.2237 166.281 Q72.2237 159.151 70.395 155.609 Q68.5894 152.045 64.9552 152.045 M64.9552 148.341 Q70.7654 148.341 73.8209 152.947 Q76.8996 157.531 76.8996 166.281 Q76.8996 175.007 73.8209 179.614 Q70.7654 184.197 64.9552 184.197 Q59.1451 184.197 56.0664 179.614 Q53.0108 175.007 53.0108 166.281 Q53.0108 157.531 56.0664 152.947 Q59.1451 148.341 64.9552 148.341 Z" fill="#000000" fill-rule="nonzero" fill-opacity="1" /><path clip-path="url(#clip810)" d="M85.1171 177.646 L90.0014 177.646 L90.0014 183.526 L85.1171 183.526 L85.1171 177.646 Z" fill="#000000" fill-rule="nonzero" fill-opacity="1" /><path clip-path="url(#clip810)" d="M110.186 167.114 Q106.853 167.114 104.932 168.896 Q103.034 170.679 103.034 173.804 Q103.034 176.929 104.932 178.711 Q106.853 180.494 110.186 180.494 Q113.52 180.494 115.441 178.711 Q117.362 176.906 117.362 173.804 Q117.362 170.679 115.441 168.896 Q113.543 167.114 110.186 167.114 M105.511 165.123 Q102.501 164.382 100.811 162.322 Q99.1448 160.262 99.1448 157.299 Q99.1448 153.156 102.085 150.748 Q105.048 148.341 110.186 148.341 Q115.348 148.341 118.288 150.748 Q121.228 153.156 121.228 157.299 Q121.228 160.262 119.538 162.322 Q117.872 164.382 114.885 165.123 Q118.265 165.91 120.14 168.202 Q122.038 170.494 122.038 173.804 Q122.038 178.827 118.96 181.512 Q115.904 184.197 110.186 184.197 Q104.469 184.197 101.39 181.512 Q98.3347 178.827 98.3347 173.804 Q98.3347 170.494 100.233 168.202 Q102.131 165.91 105.511 165.123 M103.798 157.739 Q103.798 160.424 105.464 161.929 Q107.154 163.433 110.186 163.433 Q113.196 163.433 114.885 161.929 Q116.598 160.424 116.598 157.739 Q116.598 155.054 114.885 153.549 Q113.196 152.045 110.186 152.045 Q107.154 152.045 105.464 153.549 Q103.798 155.054 103.798 157.739 Z" fill="#000000" fill-rule="nonzero" fill-opacity="1" /><polyline clip-path="url(#clip812)" style="stroke:#009af9; stroke-linecap:round; stroke-linejoin:round; stroke-width:4; stroke-opacity:1; fill:none" points="462.531,1200.97 1755.94,80.8479 "/>
<polyline clip-path="url(#clip812)" style="stroke:#808080; stroke-linecap:round; stroke-linejoin:round; stroke-width:4; stroke-opacity:0.5; fill:none" points="462.531,2421.91 462.531,-1140.09 "/>
<polyline clip-path="url(#clip812)" style="stroke:#808080; stroke-linecap:round; stroke-linejoin:round; stroke-width:4; stroke-opacity:0.5; fill:none" points="1755.94,2421.91 1755.94,-1140.09 "/>
<polyline clip-path="url(#clip812)" style="stroke:#3da44d; stroke-linecap:round; stroke-linejoin:round; stroke-width:4; stroke-opacity:1; fill:none" points="1109.24,942.293 1109.24,295.587 "/>
<polyline clip-path="url(#clip812)" style="stroke:#3da44d; stroke-linecap:round; stroke-linejoin:round; stroke-width:4; stroke-opacity:1; fill:none" points="1093.4,327.267 1109.24,295.587 1125.08,327.267 "/>
<polyline clip-path="url(#clip812)" style="stroke:#3da44d; stroke-linecap:round; stroke-linejoin:round; stroke-width:4; stroke-opacity:1; fill:none" points="1109.24,295.587 1109.24,942.293 "/>
<path clip-path="url(#clip810)" d="M625.576 1137.78 L599.772 1137.78 Q600.379 1149.9 603.175 1155.04 Q606.658 1161.36 612.694 1161.36 Q618.771 1161.36 622.133 1155 Q625.09 1149.41 625.576 1137.78 M625.455 1130.9 Q624.32 1119.39 622.133 1115.34 Q618.649 1108.94 612.694 1108.94 Q606.496 1108.94 603.215 1115.26 Q600.622 1120.36 599.853 1130.9 L625.455 1130.9 M612.694 1102.86 Q622.416 1102.86 627.966 1111.45 Q633.516 1120 633.516 1135.15 Q633.516 1150.26 627.966 1158.85 Q622.416 1167.48 612.694 1167.48 Q602.932 1167.48 597.422 1158.85 Q591.873 1150.26 591.873 1135.15 Q591.873 1120 597.422 1111.45 Q602.932 1102.86 612.694 1102.86 Z" fill="#000000" fill-rule="nonzero" fill-opacity="1" /><path clip-path="url(#clip810)" d="M725.147 1133.45 L725.147 1140.66 Q720.894 1143.86 717.248 1145.24 Q713.643 1146.61 709.713 1146.61 Q705.257 1146.61 699.343 1144.22 Q698.897 1144.06 698.695 1143.98 Q698.411 1143.86 697.804 1143.66 Q691.525 1141.15 687.717 1141.15 Q684.152 1141.15 680.668 1142.73 Q677.185 1144.26 673.215 1147.63 L673.215 1140.42 Q677.468 1137.22 681.073 1135.84 Q684.719 1134.42 688.649 1134.42 Q693.105 1134.42 699.059 1136.85 Q699.465 1137.01 699.667 1137.09 Q699.991 1137.22 700.558 1137.42 Q706.837 1139.93 710.645 1139.93 Q714.129 1139.93 717.532 1138.39 Q720.975 1136.85 725.147 1133.45 Z" fill="#000000" fill-rule="nonzero" fill-opacity="1" /><path clip-path="url(#clip810)" d="M791.663 1113.19 L771.004 1145.48 L791.663 1145.48 L791.663 1113.19 M789.516 1106.06 L799.805 1106.06 L799.805 1145.48 L808.434 1145.48 L808.434 1152.29 L799.805 1152.29 L799.805 1166.54 L791.663 1166.54 L791.663 1152.29 L764.36 1152.29 L764.36 1144.39 L789.516 1106.06 Z" fill="#000000" fill-rule="nonzero" fill-opacity="1" /><path clip-path="url(#clip810)" d="M822.045 1106.06 L854.169 1106.06 L854.169 1112.95 L829.539 1112.95 L829.539 1127.78 Q831.321 1127.17 833.104 1126.89 Q834.886 1126.56 836.669 1126.56 Q846.796 1126.56 852.71 1132.11 Q858.625 1137.66 858.625 1147.14 Q858.625 1156.9 852.548 1162.33 Q846.472 1167.72 835.413 1167.72 Q831.605 1167.72 827.635 1167.07 Q823.706 1166.42 819.493 1165.13 L819.493 1156.9 Q823.139 1158.89 827.028 1159.86 Q830.916 1160.83 835.251 1160.83 Q842.259 1160.83 846.35 1157.15 Q850.442 1153.46 850.442 1147.14 Q850.442 1140.82 846.35 1137.13 Q842.259 1133.45 835.251 1133.45 Q831.97 1133.45 828.688 1134.18 Q825.448 1134.91 822.045 1136.45 L822.045 1106.06 Z" fill="#000000" fill-rule="nonzero" fill-opacity="1" /><path clip-path="url(#clip810)" d="M869.927 1140.5 L891.761 1140.5 L891.761 1147.14 L869.927 1147.14 L869.927 1140.5 Z" fill="#000000" fill-rule="nonzero" fill-opacity="1" /><path clip-path="url(#clip810)" d="M923.196 1133.04 Q917.687 1133.04 914.446 1136.81 Q911.246 1140.58 911.246 1147.14 Q911.246 1153.66 914.446 1157.47 Q917.687 1161.24 923.196 1161.24 Q928.705 1161.24 931.905 1157.47 Q935.146 1153.66 935.146 1147.14 Q935.146 1140.58 931.905 1136.81 Q928.705 1133.04 923.196 1133.04 M939.44 1107.4 L939.44 1114.85 Q936.361 1113.4 933.202 1112.63 Q930.083 1111.86 927.004 1111.86 Q918.902 1111.86 914.608 1117.33 Q910.355 1122.79 909.747 1133.85 Q912.137 1130.33 915.742 1128.47 Q919.348 1126.56 923.682 1126.56 Q932.797 1126.56 938.063 1132.11 Q943.369 1137.62 943.369 1147.14 Q943.369 1156.46 937.86 1162.09 Q932.351 1167.72 923.196 1167.72 Q912.704 1167.72 907.154 1159.7 Q901.605 1151.64 901.605 1136.37 Q901.605 1122.02 908.41 1113.52 Q915.216 1104.97 926.68 1104.97 Q929.758 1104.97 932.878 1105.58 Q936.037 1106.19 939.44 1107.4 Z" fill="#000000" fill-rule="nonzero" fill-opacity="1" /><path clip-path="url(#clip810)" d="M974.967 1111.45 Q968.647 1111.45 965.447 1117.69 Q962.287 1123.89 962.287 1136.37 Q962.287 1148.8 965.447 1155.04 Q968.647 1161.24 974.967 1161.24 Q981.326 1161.24 984.486 1155.04 Q987.686 1148.8 987.686 1136.37 Q987.686 1123.89 984.486 1117.69 Q981.326 1111.45 974.967 1111.45 M974.967 1104.97 Q985.134 1104.97 990.482 1113.03 Q995.869 1121.05 995.869 1136.37 Q995.869 1151.64 990.482 1159.7 Q985.134 1167.72 974.967 1167.72 Q964.799 1167.72 959.411 1159.7 Q954.064 1151.64 954.064 1136.37 Q954.064 1121.05 959.411 1113.03 Q964.799 1104.97 974.967 1104.97 Z" fill="#000000" fill-rule="nonzero" fill-opacity="1" /><path clip-path="url(#clip810)" d="M1065.42 1128.06 L1065.42 1103.51 L1072.88 1103.51 L1072.88 1166.54 L1065.42 1166.54 L1065.42 1159.74 Q1063.07 1163.79 1059.47 1165.77 Q1055.9 1167.72 1050.88 1167.72 Q1042.66 1167.72 1037.47 1161.16 Q1032.33 1154.59 1032.33 1143.9 Q1032.33 1133.21 1037.47 1126.64 Q1042.66 1120.08 1050.88 1120.08 Q1055.9 1120.08 1059.47 1122.07 Q1063.07 1124.01 1065.42 1128.06 M1040.02 1143.9 Q1040.02 1152.12 1043.39 1156.82 Q1046.79 1161.48 1052.7 1161.48 Q1058.62 1161.48 1062.02 1156.82 Q1065.42 1152.12 1065.42 1143.9 Q1065.42 1135.68 1062.02 1131.02 Q1058.62 1126.32 1052.7 1126.32 Q1046.79 1126.32 1043.39 1131.02 Q1040.02 1135.68 1040.02 1143.9 Z" fill="#000000" fill-rule="nonzero" fill-opacity="1" /><path clip-path="url(#clip810)" d="M1127.04 1142 L1127.04 1145.64 L1092.77 1145.64 Q1093.25 1153.34 1097.38 1157.39 Q1101.56 1161.4 1108.97 1161.4 Q1113.26 1161.4 1117.27 1160.35 Q1121.33 1159.29 1125.3 1157.19 L1125.3 1164.24 Q1121.29 1165.94 1117.07 1166.83 Q1112.86 1167.72 1108.52 1167.72 Q1097.67 1167.72 1091.31 1161.4 Q1084.99 1155.08 1084.99 1144.3 Q1084.99 1133.16 1090.98 1126.64 Q1097.02 1120.08 1107.23 1120.08 Q1116.38 1120.08 1121.69 1125.99 Q1127.04 1131.87 1127.04 1142 M1119.58 1139.81 Q1119.5 1133.69 1116.14 1130.05 Q1112.82 1126.4 1107.31 1126.4 Q1101.07 1126.4 1097.3 1129.92 Q1093.58 1133.45 1093.01 1139.85 L1119.58 1139.81 Z" fill="#000000" fill-rule="nonzero" fill-opacity="1" /><path clip-path="url(#clip810)" d="M1169.13 1143.33 Q1169.13 1135.23 1165.76 1130.77 Q1162.44 1126.32 1156.41 1126.32 Q1150.41 1126.32 1147.05 1130.77 Q1143.73 1135.23 1143.73 1143.33 Q1143.73 1151.39 1147.05 1155.85 Q1150.41 1160.31 1156.41 1160.31 Q1162.44 1160.31 1165.76 1155.85 Q1169.13 1151.39 1169.13 1143.33 M1176.58 1160.91 Q1176.58 1172.5 1171.44 1178.13 Q1166.29 1183.8 1155.68 1183.8 Q1151.75 1183.8 1148.26 1183.19 Q1144.78 1182.63 1141.5 1181.41 L1141.5 1174.16 Q1144.78 1175.94 1147.98 1176.79 Q1151.18 1177.64 1154.5 1177.64 Q1161.83 1177.64 1165.48 1173.8 Q1169.13 1169.99 1169.13 1162.25 L1169.13 1158.56 Q1166.82 1162.57 1163.21 1164.56 Q1159.61 1166.54 1154.58 1166.54 Q1146.24 1166.54 1141.13 1160.18 Q1136.03 1153.82 1136.03 1143.33 Q1136.03 1132.8 1141.13 1126.44 Q1146.24 1120.08 1154.58 1120.08 Q1159.61 1120.08 1163.21 1122.07 Q1166.82 1124.05 1169.13 1128.06 L1169.13 1121.17 L1176.58 1121.17 L1176.58 1160.91 Z" fill="#000000" fill-rule="nonzero" fill-opacity="1" /><path clip-path="url(#clip810)" d="M1218.22 1128.14 Q1216.97 1127.41 1215.47 1127.09 Q1214.01 1126.72 1212.23 1126.72 Q1205.91 1126.72 1202.51 1130.86 Q1199.14 1134.95 1199.14 1142.64 L1199.14 1166.54 L1191.65 1166.54 L1191.65 1121.17 L1199.14 1121.17 L1199.14 1128.22 Q1201.49 1124.09 1205.26 1122.11 Q1209.03 1120.08 1214.42 1120.08 Q1215.19 1120.08 1216.12 1120.2 Q1217.05 1120.28 1218.18 1120.49 L1218.22 1128.14 Z" fill="#000000" fill-rule="nonzero" fill-opacity="1" /><path clip-path="url(#clip810)" d="M1263.03 1142 L1263.03 1145.64 L1228.76 1145.64 Q1229.24 1153.34 1233.37 1157.39 Q1237.55 1161.4 1244.96 1161.4 Q1249.25 1161.4 1253.26 1160.35 Q1257.31 1159.29 1261.28 1157.19 L1261.28 1164.24 Q1257.27 1165.94 1253.06 1166.83 Q1248.85 1167.72 1244.51 1167.72 Q1233.66 1167.72 1227.3 1161.4 Q1220.98 1155.08 1220.98 1144.3 Q1220.98 1133.16 1226.97 1126.64 Q1233.01 1120.08 1243.22 1120.08 Q1252.37 1120.08 1257.68 1125.99 Q1263.03 1131.87 1263.03 1142 M1255.57 1139.81 Q1255.49 1133.69 1252.13 1130.05 Q1248.81 1126.4 1243.3 1126.4 Q1237.06 1126.4 1233.29 1129.92 Q1229.57 1133.45 1229 1139.85 L1255.57 1139.81 Z" fill="#000000" fill-rule="nonzero" fill-opacity="1" /><path clip-path="url(#clip810)" d="M1314.07 1142 L1314.07 1145.64 L1279.8 1145.64 Q1280.28 1153.34 1284.42 1157.39 Q1288.59 1161.4 1296 1161.4 Q1300.29 1161.4 1304.31 1160.35 Q1308.36 1159.29 1312.33 1157.19 L1312.33 1164.24 Q1308.32 1165.94 1304.1 1166.83 Q1299.89 1167.72 1295.56 1167.72 Q1284.7 1167.72 1278.34 1161.4 Q1272.02 1155.08 1272.02 1144.3 Q1272.02 1133.16 1278.01 1126.64 Q1284.05 1120.08 1294.26 1120.08 Q1303.41 1120.08 1308.72 1125.99 Q1314.07 1131.87 1314.07 1142 M1306.61 1139.81 Q1306.53 1133.69 1303.17 1130.05 Q1299.85 1126.4 1294.34 1126.4 Q1288.1 1126.4 1284.33 1129.92 Q1280.61 1133.45 1280.04 1139.85 L1306.61 1139.81 Z" fill="#000000" fill-rule="nonzero" fill-opacity="1" /></svg>
